<?xml version="1.0" encoding="UTF-8"?>
<svg width="26px" height="31px" viewBox="0 0 26 31" version="1.1" xmlns="http://www.w3.org/2000/svg" xmlns:xlink="http://www.w3.org/1999/xlink">
    <!-- Generator: Sketch 52.6 (67491) - http://www.bohemiancoding.com/sketch -->
    <title>Logo/Mark/Grey</title>
    <desc>Created with Sketch.</desc>
    <g id="Web---Registration-(Phased-Rollout)" stroke="none" stroke-width="1" fill="none" fill-rule="evenodd">
        <g id="Phase-2---Portfolio-Questions-(old)" transform="translate(-707.000000, -960.000000)" fill="#CCCFCF">
            <g id="Logo/Mark/Grey" transform="translate(707.000000, 960.000000)">
                <path d="M24.9598236,14.7507596 L1.04145099,14.7529491 C-1.06703009,14.5914169 -0.998658973,4.50392618 11.2392759,3.638245 C11.3558288,3.58521185 11.3808487,3.57316991 11.4487244,3.35483386 C11.5621808,2.95063847 11.6272077,2.55641721 11.638479,2.18396874 C11.6512366,1.72795656 11.5891824,1.32205827 11.4503345,0.942676567 C11.3256068,0.606232259 11.1356045,0.286087134 10.8882546,3.73034936e-14 C11.2654105,0.000973085488 11.638479,0.0749275826 11.9994091,0.220403863 C12.463763,0.402614121 12.9338144,0.716312555 13.357542,1.13036043 C13.7509236,1.51120176 14.1142071,1.97670153 14.4388461,2.51420963 C14.5939197,2.77207728 14.7338823,3.03310747 14.8664133,3.31420754 C14.9293345,3.45068278 14.9900263,3.59202344 15.0476215,3.74054062 C26.9931212,4.75254952 27.0520789,14.5898356 24.9598236,14.7507596 Z M24.3963316,15.8146218 C24.3963316,15.8146218 26.2878087,27.3723231 14.7058402,29.5554404 C14.1804231,29.9953967 13.3085674,31.0043647 12.9908647,30.9999858 C12.6729142,31.0043647 11.8008108,29.9953967 11.2750221,29.5554404 C-0.371477817,27.5949164 1.58341597,15.8146218 1.58341597,15.8146218 L24.3963316,15.8146218 Z" id="Combined-Shape"></path>
            </g>
        </g>
    </g>
</svg>