<?xml version="1.0" encoding="UTF-8"?>
<svg width="123px" height="33px" viewBox="0 0 123 33" version="1.1" xmlns="http://www.w3.org/2000/svg" xmlns:xlink="http://www.w3.org/1999/xlink">
    <!-- Generator: sketchtool 61 (101010) - https://sketch.com -->
    <title>0404fc21-9524-44da-b3fd-51ba112f3945@1.00x</title>
    <desc>Created with sketchtool.</desc>
    <defs>
        <path d="M25.6639891,16.8256906 C25.6639891,16.8256906 27.6537486,29.1222671 15.4699732,31.4449494 C14.917255,31.9130318 14.0000971,32.9865024 13.6658863,32.9818586 C13.3314149,32.9865024 12.4139965,31.9130318 11.8608874,31.4449494 C-0.390772564,29.3590906 1.66569883,16.8256906 1.66569883,16.8256906 L25.6639891,16.8256906 Z M56.0412496,10.0854471 C57.0248587,10.0854471 57.9728968,10.2667529 58.8590441,10.6244471 C59.7468852,10.9835647 60.5169381,11.4959059 61.147704,12.1476235 L61.147704,12.1476235 L61.3422369,12.3484706 L60.3853386,13.1910706 L60.2059201,13.0052353 C59.6692284,12.4495412 59.0311659,12.0110941 58.3095833,11.7025765 C57.5874794,11.3939294 56.8243322,11.2376 56.0412496,11.2376 C55.0244148,11.2376 54.100221,11.4308118 53.2943364,11.8119294 C52.4851945,12.1953765 51.7861532,12.7143176 51.2170176,13.3542588 C50.6461881,13.9961412 50.1983587,14.7537176 49.8857771,15.6055059 C49.5728047,16.4596235 49.4141034,17.3679647 49.4141034,18.3056824 C49.4141034,19.2436588 49.5728047,20.152 49.8857771,21.0054706 C50.1978375,21.857 50.6452761,22.6084941 51.2155843,23.2389882 C51.7840684,23.8684471 52.4825886,24.3763882 53.2917305,24.7492235 C54.097615,25.1206353 55.0228513,25.3088 56.0412496,25.3088 C56.8303258,25.3088 57.6152326,25.1721412 58.3739498,24.9024471 C59.12524,24.6357294 59.7877983,24.2300235 60.3432528,23.6962 L60.3432528,23.6962 L60.5277528,23.5190353 L61.4054307,24.3364 L61.2095949,24.5316824 C60.5317919,25.2079882 59.7247347,25.7049294 58.8105737,26.0086588 C57.9089212,26.3087647 56.9771701,26.4609529 56.0412496,26.4609529 C54.9036299,26.4609529 53.8447093,26.2572588 52.893935,25.8551765 C51.9438121,25.454 51.1045716,24.8879529 50.3996669,24.1733412 C49.6935896,23.4578235 49.1374837,22.5862353 48.7468544,21.5830353 C48.357007,20.5835882 48.159347,19.481 48.159347,18.3056824 C48.159347,17.1301059 48.357007,16.0275176 48.7468544,15.0278118 C49.1369625,14.0262941 49.6924169,13.1499176 50.3981034,12.4231412 C51.1032686,11.6977882 51.9421182,11.1208706 52.8914593,10.7084353 C53.8432761,10.2949647 54.9029784,10.0854471 56.0412496,10.0854471 Z M38.7275924,10.0639518 C40.5032746,10.0639518 41.9281983,10.5298341 42.963014,11.4483988 C44.0061686,12.3751165 44.5351729,13.8365635 44.5351729,15.7922341 L44.5351729,15.7922341 L44.5351729,22.3576812 C44.5351729,22.9141518 44.5621443,23.5133282 44.6156962,24.1386459 C44.6684663,24.7642224 44.8343339,26.0478576 44.898961,26.4558929 L44.898961,26.4558929 L43.6752153,26.4558929 C43.6294811,26.2298106 43.4969695,25.2848459 43.4748191,24.9595047 C43.4530595,24.6482694 43.426479,24.3260341 43.3940352,23.9920224 C43.3695394,23.7394106 43.3507767,23.4878341 43.3383985,23.2415635 C42.8718064,24.1757871 42.2155023,24.9091635 41.3789981,25.4287518 C40.2757767,26.1135988 39.0769176,26.46094 37.8156464,26.46094 C37.1852714,26.46094 36.5515087,26.3698341 35.9320786,26.1899518 C35.3065246,26.0083871 34.7358254,25.7320929 34.2358773,25.3690929 C33.7279811,25.0007871 33.312335,24.5223518 33.0011867,23.9469871 C32.6882142,23.3687753 32.5292523,22.6808224 32.5292523,21.9024106 C32.5292523,20.7807988 32.8303678,19.8586106 33.4236083,19.1618576 C34.0022555,18.4828341 34.731265,17.9499165 35.5904409,17.5777282 C36.4346326,17.21214 37.3536146,16.9700106 38.321979,16.8587165 C39.2724928,16.7494929 40.15421,16.6942341 40.9426347,16.6942341 L40.9426347,16.6942341 L43.2787227,16.6942341 L43.2787227,15.7596224 C43.2787227,14.1804106 42.8606008,13.0184224 42.0358233,12.3054929 C41.19971,11.5835047 40.086586,11.2175282 38.7275924,11.2175282 C37.8776676,11.2175282 37.0746496,11.3743753 36.3410797,11.6836694 C35.6015161,11.9954224 34.9307492,12.4170459 34.3475415,12.9367635 L34.3475415,12.9367635 L34.1212163,13.1382576 L33.4164419,12.1419165 L33.598336,11.9832576 C34.3157492,11.3570341 35.1394843,10.8751047 36.0467396,10.5510576 C36.9524314,10.2277871 37.8543445,10.0639518 38.7275924,10.0639518 Z M117.782416,10.0641071 C119.915371,10.0641071 121.541342,10.8381188 122.615247,12.3650482 L122.615247,12.3650482 L122.783981,12.6047188 L121.701347,13.2299071 L121.556457,13.0413541 C121.082568,12.4247071 120.542098,11.9621894 119.949769,11.6664835 C119.357702,11.3715541 118.628562,11.2220835 117.782416,11.2220835 C117.391656,11.2220835 116.972883,11.2744953 116.537431,11.3778953 C116.112274,11.4792247 115.717475,11.6478482 115.364632,11.8791071 C115.018564,12.1060953 114.727351,12.4122835 114.499202,12.7883541 C114.275743,13.1571776 114.162255,13.6154247 114.162255,14.1504129 C114.162255,14.7565776 114.256198,15.2412247 114.44148,15.5911541 C114.62598,15.9401776 114.886573,16.2247541 115.215963,16.4369894 C115.562813,16.6615188 115.991358,16.8540835 116.490394,17.0096365 C117.008323,17.1712718 117.585277,17.3288953 118.20601,17.4781071 C118.804723,17.6328835 119.391318,17.8167776 119.953678,18.0257776 C120.530501,18.2403424 121.046606,18.5097776 121.488833,18.82606 C121.945001,19.1534718 122.312829,19.5678482 122.582152,20.0574129 C122.85356,20.5531894 122.991153,21.1672482 122.991153,21.8830247 C122.991153,22.5951776 122.849911,23.2441776 122.571467,23.8117776 C122.294196,24.3765306 121.912948,24.8618247 121.438408,25.2545894 C120.968298,25.6439894 120.416492,25.9456482 119.797844,26.1514129 C119.184668,26.3553659 118.517419,26.4588953 117.81525,26.4588953 C116.667858,26.4588953 115.611413,26.2360482 114.674841,25.7969541 C113.731494,25.3550129 112.942287,24.6941071 112.329372,23.8327424 L112.329372,23.8327424 L112.168977,23.6076953 L113.207441,22.9167659 L113.360149,23.1301659 C114.404997,24.5908365 115.873179,25.3009188 117.847824,25.3009188 C118.29839,25.3009188 118.760813,25.22806 119.222193,25.0849306 C119.680186,24.9429659 120.103259,24.7267188 120.479555,24.4421424 C120.850249,24.1626129 121.155274,23.8069894 121.386811,23.3858835 C121.614569,22.9707306 121.730012,22.48686 121.730012,21.9482482 C121.730012,21.3141306 121.587598,20.7962247 121.306678,20.4092835 C121.016117,20.0092718 120.644511,19.6841894 120.202675,19.4436129 C119.74338,19.1937188 119.228838,18.9874365 118.672993,18.8303306 C118.096952,18.66766 117.559348,18.5212953 117.059921,18.3914953 C116.504336,18.23646 115.97885,18.0635659 115.493495,17.8759188 C114.99068,17.6828365 114.542069,17.42686 114.160561,17.1152365 C113.770974,16.7970129 113.460347,16.3981659 113.23754,15.9294365 C113.014211,15.4614835 112.900723,14.8736953 112.900723,14.1830247 C112.900723,13.4887306 113.043919,12.8745424 113.326272,12.3581894 C113.605758,11.8463659 113.9844,11.4155541 114.451122,11.0780482 C114.910678,10.7458482 115.439031,10.4907776 116.021717,10.3196953 C116.599583,10.1501659 117.191911,10.0641071 117.782416,10.0641071 Z M102.757692,10.0629941 C103.84189,10.0629941 104.763739,10.2599588 105.49783,10.6485824 C106.230618,11.0373353 106.823207,11.5599 107.259961,12.2015235 C107.690461,12.8349941 108.000437,13.5560765 108.181288,14.3453588 C108.359404,15.1224765 108.449569,15.9210765 108.449569,16.7186412 L108.449569,16.7186412 L108.449569,26.4558412 L107.189992,26.4558412 L107.189992,16.7839941 C107.189992,16.1954294 107.125756,15.5541941 106.998716,14.8778882 C106.875065,14.2199588 106.64014,13.6157353 106.300848,13.0823 C105.965725,12.5549471 105.505126,12.1062765 104.932342,11.7487118 C104.36881,11.3976176 103.636933,11.2195471 102.757692,11.2195471 C101.973958,11.2195471 101.226707,11.3811824 100.536395,11.6996647 C99.8460839,12.0185353 99.2400744,12.4826059 98.735175,13.0790647 C98.2249335,13.6814765 97.812675,14.4258529 97.509996,15.2916176 C97.2057534,16.1597118 97.0513519,17.1661471 97.0513519,18.2828412 L97.0513519,18.2828412 L97.0513519,26.4558412 L95.791514,26.4558412 L95.791514,14.5679471 C95.791514,14.3315118 95.7860415,14.0408529 95.7754875,13.6963588 L95.7754875,13.6963588 L95.7426528,12.6369941 C95.7315775,12.2824059 95.7154208,11.9430882 95.6943127,11.6200765 C95.6726835,11.2979706 95.6506633,11.0293118 95.6295553,10.8139706 L95.6295553,10.8139706 L95.5659706,10.0640294 L96.8284144,10.0640294 L96.8869176,10.7618176 C96.9088074,10.9853118 96.925746,11.2651 96.9366909,11.5935471 C96.9475055,11.9191471 96.9583201,12.2719235 96.9695256,12.6511 C96.9785161,12.9689353 96.9875066,13.2769353 96.996497,13.5771706 C97.156371,13.2700765 97.3394377,12.9807118 97.5450458,12.7112765 C97.9720278,12.1505353 98.463246,11.6661471 99.0050193,11.2718294 C99.5495288,10.8760882 100.146678,10.5723588 100.78018,10.3693118 C101.413552,10.1660059 102.078847,10.0629941 102.757692,10.0629941 Z M85.9151221,10.0640812 L85.973495,10.7627753 C85.9953849,10.9862694 86.0123234,11.2661871 86.0233986,11.5946341 C86.0342132,11.9208812 86.0451582,12.2746929 86.056494,12.6547753 C86.0636603,12.9147635 86.0709569,13.1693165 86.0783838,13.4185635 C86.5181349,12.4233871 87.105512,11.6602459 87.8324368,11.1410459 C88.8327238,10.4264341 89.9295607,10.0640812 91.0929791,10.0640812 L91.0929791,10.0640812 L91.3869283,10.0640812 C91.4907747,10.0640812 91.6041327,10.0763753 91.7332567,10.10174 L91.7332567,10.10174 L91.9515035,10.1445753 L91.9515035,11.3276576 L91.6159897,11.2453518 C91.5494082,11.2289165 91.4885596,11.2206341 91.4360501,11.2206341 L91.4360501,11.2206341 L91.2563711,11.2206341 C90.3541974,11.2206341 89.5789325,11.4204459 88.951424,11.8146341 C88.3137524,12.2146459 87.7816211,12.7456224 87.3700141,13.39294 C86.9518923,14.0491871 86.6393107,14.7896812 86.4403478,15.5943635 C86.2398213,16.4048694 86.1380596,17.2221047 86.1380596,18.0232929 L86.1380596,18.0232929 L86.1380596,26.4558929 L84.8784823,26.4558929 L84.8784823,14.5690341 C84.8784823,14.3325988 84.872619,14.04194 84.8620649,13.6973165 L84.8620649,13.6973165 L84.8293605,12.6380812 C84.8185459,12.2833635 84.8021285,11.9440459 84.7810204,11.6211635 C84.7593912,11.2990576 84.7376317,11.0303988 84.7165236,10.8150576 L84.7165236,10.8150576 L84.6528086,10.0640812 L85.9151221,10.0640812 Z M72.6628363,10.0696847 C73.8425418,10.0696847 74.9447209,10.2729906 75.9382325,10.6740376 C76.9326562,11.0753435 77.8004317,11.6416494 78.5182357,12.3571671 C79.2353882,13.0730729 79.7976181,13.9396141 80.1895503,14.9331082 C80.5801796,15.9250494 80.7779698,17.0343671 80.7779698,18.2301318 C80.7779698,19.4258965 80.5801796,20.5402612 80.1900715,21.5422965 C79.7981393,22.5473082 79.23617,23.4249788 78.5195387,24.1505906 C77.8021255,24.8774965 76.9338289,25.4498847 75.9384931,25.8517082 C74.9447209,26.2526259 73.8425418,26.4559318 72.6628363,26.4559318 C71.4827399,26.4559318 70.3857728,26.2523671 69.4029454,25.8511906 C68.4180334,25.4493671 67.5553395,24.8772376 66.8383173,24.1505906 C66.1211647,23.4240729 65.5591954,22.5467906 65.1684359,21.5422965 C64.7783279,20.5422024 64.5805376,19.4279671 64.5805376,18.2301318 C64.5805376,17.0324259 64.7783279,15.9229788 65.1689571,14.9331082 C65.5597166,13.9402612 66.1219465,13.07372 66.8400111,12.3571671 C67.5569031,11.6420376 68.419206,11.0758612 69.4029454,10.6744259 C70.3857728,10.27312 71.4827399,10.0696847 72.6628363,10.0696847 Z M43.2787227,17.8478106 L41.2359324,17.8478106 C40.4231422,17.8478106 39.5561485,17.8965988 38.6587958,17.9926224 C37.7765574,18.0868341 36.9568614,18.2831518 36.2222492,18.5760106 C35.506139,18.86214 34.9109441,19.2747047 34.4532121,19.8024459 C34.0102036,20.3133635 33.7857025,21.0198224 33.7857025,21.9024106 C33.7857025,22.5455871 33.9103964,23.0852341 34.1565267,23.5072459 C34.4057841,23.9354694 34.7282682,24.2828106 35.1153794,24.5398224 C35.5112206,24.8034341 35.9544896,24.9987165 36.4330691,25.1207518 C36.9194663,25.2444694 37.3846252,25.3073635 37.8156464,25.3073635 C38.8711792,25.3073635 39.7582386,25.1110459 40.4523286,24.7238459 C41.1508487,24.3345753 41.7178996,23.8315518 42.1377153,23.2290106 C42.5607883,22.6214224 42.8591676,21.9420106 43.0247746,21.2097988 C43.1933784,20.4636106 43.2787227,19.7233753 43.2787227,19.0097988 L43.2787227,19.0097988 L43.2787227,17.8478106 Z M72.6628363,11.2224847 C71.5990948,11.2224847 70.6388088,11.40612 69.8089497,11.7682141 C68.97883,12.1308259 68.2585503,12.6342376 67.6683067,13.2644729 C67.0772812,13.8957435 66.6195493,14.6464612 66.3080101,15.4960494 C65.9949073,16.3506847 65.8360757,17.2704141 65.8360757,18.2301318 C65.8360757,19.2121082 65.9949073,20.1428376 66.3080101,20.9969553 C66.6195493,21.8468024 67.0772812,22.59752 67.6683067,23.2282729 C68.2588109,23.8594141 68.9798724,24.36852 69.8116859,24.7420024 C70.6399815,25.1141906 71.5993554,25.3031318 72.6628363,25.3031318 C73.7267082,25.3031318 74.6916849,25.1141906 75.5313162,24.7414847 C76.3732929,24.3682612 77.0995662,23.8591553 77.6900704,23.2285318 C78.2814868,22.5970024 78.7388279,21.8462847 79.0502368,20.9969553 C79.3636001,20.1430965 79.5224317,19.2121082 79.5224317,18.2301318 C79.5224317,17.2704141 79.3636001,16.3504259 79.0502368,15.4960494 C78.7388279,14.6471082 78.2814868,13.8962612 77.6900704,13.2643435 C77.0999571,12.6344965 76.3743353,12.1312141 75.5339221,11.7687318 C74.6927272,11.4062494 73.7267082,11.2224847 72.6628363,11.2224847 Z M11.4540232,5.17647056e-05 C11.8507764,0.00108705882 12.2432298,0.0797694118 12.6229141,0.234545882 C13.1113961,0.428404706 13.6058717,0.762157647 14.0516164,1.20267529 C14.4654385,1.60786353 14.8475984,2.10312235 15.1891058,2.67499294 C15.3522372,2.94934588 15.4994724,3.22706353 15.6388897,3.52613412 C15.7050804,3.67133412 15.7689257,3.82171059 15.8295137,3.97972235 C28.3957096,5.05642824 28.4577308,15.5226047 26.2567605,15.6938165 L1.09557299,15.6961459 C-1.12246621,15.5242871 -1.05054248,4.79191059 11.8232838,3.87088706 C11.9458929,3.81446353 11.9722128,3.80165176 12.0436154,3.56935765 C12.1629671,3.13932235 12.2313728,2.71989882 12.2432298,2.32364 C12.2566503,1.83847529 12.1913717,1.40662824 12.0453092,1.00299294 C11.9141005,0.64504 11.7142255,0.304428235 11.4540232,5.17647056e-05 Z" id="path-1"></path>
    </defs>
    <g id="Logos" stroke="none" stroke-width="1" fill="none" fill-rule="evenodd">
        <g id="Logo/Full/Green">
            <mask id="mask-2" fill="white">
                <use xlink:href="#path-1"></use>
            </mask>
            <use id="Combined-Shape" fill="#74C947" xlink:href="#path-1"></use>
        </g>
    </g>
</svg>