<?xml version="1.0" encoding="UTF-8"?>
<svg width="104px" height="104px" viewBox="0 0 104 104" version="1.1" xmlns="http://www.w3.org/2000/svg" xmlns:xlink="http://www.w3.org/1999/xlink">
    <!-- Generator: Sketch 63.1 (92452) - https://sketch.com -->
    <title>Bank</title>
    <desc>Created with Sketch.</desc>
    <g id="Bank" stroke="none" stroke-width="1" fill="none" fill-rule="evenodd">
        <g id="Icon/36x36/Interstitial/Bank" transform="translate(28.000000, 28.000000)">
            <path d="M41.3361333,19.7488 C42.0708,19.7488 42.6668,19.1528 42.6668,18.4181333 L42.6668,17.8088 C42.6668,17.3554667 42.4361333,16.9341333 42.0561333,16.6888 L24.7201333,6.87813333 C24.2814667,6.5968 23.7188,6.5968 23.2801333,6.87813333 L5.94413333,16.6888 C5.56413333,16.9341333 5.33346667,17.3554667 5.33346667,17.8088 L5.33346667,18.4181333 C5.33346667,19.1528 5.92946667,19.7488 6.66413333,19.7488 L10.0001333,19.7488 L10.0001333,35.7488 L8.00013333,35.7488 C6.5268,35.7488 5.33346667,36.9434667 5.33346667,38.4154667 C5.33346667,39.8874667 6.5268,41.0821333 8.00013333,41.0821333 L40.0001333,41.0821333 C41.4721333,41.0821333 42.6668,39.8874667 42.6668,38.4154667 C42.6668,36.9434667 41.4721333,35.7488 40.0001333,35.7488 L38.0001333,35.7488 L38.0001333,19.7488 L41.3361333,19.7488 Z" id="Fill-1" fill="#BCEAA3"></path>
            <path d="M32.6613333,19.7488 C33.4013333,19.7488 34,20.3474667 34,21.0874667 L34,21.0874667 L34,34.4101333 C34,35.1501333 33.4013333,35.7488 32.6613333,35.7488 L32.6613333,35.7488 L31.3386667,35.7488 C30.5986667,35.7488 30,35.1501333 30,34.4101333 L30,34.4101333 L30,21.0874667 C30,20.3474667 30.5986667,19.7488 31.3386667,19.7488 L31.3386667,19.7488 Z M24.6613333,19.7488 C25.4013333,19.7488 26,20.3474667 26,21.0874667 L26,21.0874667 L26,34.4101333 C26,35.1501333 25.4013333,35.7488 24.6613333,35.7488 L24.6613333,35.7488 L23.3386667,35.7488 C22.5986667,35.7488 22,35.1501333 22,34.4101333 L22,34.4101333 L22,21.0874667 C22,20.3474667 22.5986667,19.7488 23.3386667,19.7488 L23.3386667,19.7488 Z M16.6613333,19.7488 C17.4013333,19.7488 18,20.3474667 18,21.0874667 L18,34.4101333 C18,35.1501333 17.4013333,35.7488 16.6613333,35.7488 L15.3386667,35.7488 C14.5986667,35.7488 14,35.1501333 14,34.4101333 L14,21.0874667 C14,20.3474667 14.5986667,19.7488 15.3386667,19.7488 L16.6613333,19.7488 Z M24,11.7488 C25.472,11.7488 26.6666667,12.9434667 26.6666667,14.4154667 C26.6666667,15.8874667 25.472,17.0821333 24,17.0821333 C22.528,17.0821333 21.3333333,15.8874667 21.3333333,14.4154667 C21.3333333,12.9434667 22.528,11.7488 24,11.7488 Z" id="Fill-2" fill="#53B124"></path>
        </g>
    </g>
</svg>